<svg xmlns="http://www.w3.org/2000/svg" preserveAspectRatio="xMidYMid" width="16" height="16" viewBox="0 0 16 16"><path d="M15.897,6.730 L13.398,6.730 C13.496,7.145 13.547,7.573 13.547,8.009 C13.547,8.758 13.400,9.483 13.111,10.164 C12.832,10.824 12.432,11.417 11.922,11.927 C11.411,12.435 10.818,12.836 10.158,13.115 C9.476,13.403 8.750,13.549 8.000,13.549 C7.250,13.549 6.523,13.403 5.842,13.115 C5.182,12.836 4.588,12.435 4.077,11.927 C3.567,11.417 3.167,10.824 2.888,10.164 C2.600,9.483 2.453,8.758 2.453,8.009 C2.453,7.259 2.600,6.534 2.888,5.852 C3.167,5.193 3.567,4.600 4.077,4.091 C4.588,3.581 5.182,3.180 5.842,2.902 C6.523,2.613 7.250,2.468 8.000,2.468 C8.750,2.468 9.476,2.613 10.158,2.902 C10.448,3.024 10.725,3.171 10.988,3.339 L9.423,4.902 L14.330,4.902 L14.330,-0.000 L12.750,1.578 C11.422,0.597 9.778,0.016 8.000,0.016 C3.581,0.016 -0.000,3.595 -0.000,8.009 C-0.000,12.422 3.581,16.000 8.000,16.000 C12.418,16.000 16.000,12.422 16.000,8.009 C16.000,7.573 15.965,7.146 15.897,6.730 Z" class="cls-1"/></svg>